<?xml version="1.0" encoding="UTF-8"?>
<svg viewBox="0 0 85 85" version="1.1" xmlns="http://www.w3.org/2000/svg" xmlns:xlink="http://www.w3.org/1999/xlink">
    <!-- Generator: Sketch 43.1 (39012) - http://www.bohemiancoding.com/sketch -->
    <title>udacity-logo@2x</title>
    <desc>Created with Sketch.</desc>
    <defs></defs>
    <g id="Large" stroke="none" stroke-width="1" fill="none" fill-rule="evenodd">
        <g id="Desktop" transform="translate(-40.000000, -40.000000)" fill="#02B3E4">
            <g id="Header" transform="translate(40.000000, 40.000000)">
                <g id="udacity-logo">
                    <path d="M79.516129,0.274193548 L54.8387097,13.1612903 L54.8387097,13.1612903 L54.8387097,54.016129 C54.8387097,55.6612903 54.8387097,57.5806452 54.2903226,59.2258065 C54.016129,60.8709677 53.4677419,62.516129 52.9193548,63.8870968 C52.6451613,64.1612903 52.6451613,64.7096774 52.3709677,64.983871 C51.5483871,64.983871 45.516129,63.0645161 42.7741935,61.1451613 C41.6774194,60.3225806 40.5806452,59.5 39.483871,58.4032258 C38.3870968,57.3064516 37.5645161,56.2096774 36.7419355,55.1129032 C35.9193548,54.016129 35.0967742,52.6451613 34.5483871,51.2741935 C34,49.9032258 33.4516129,48.5322581 33.1774194,46.8870968 C32.9032258,45.516129 32.9032258,43.8709677 32.9032258,42.5 L32.9032258,3.29032258 L27.4193548,0 L0,16.1774194 L0,53.7419355 C0,71.016129 13.983871,85 30.983871,85 C36.7419355,85 41.9516129,83.6290323 46.6129032,80.8870968 L69.6451613,67.7258065 C78.6935484,63.0645161 85,53.4677419 85,42.7741935 L85,3.56451613 L79.516129,0.274193548 L79.516129,0.274193548 Z M49.0806452,71.8387097 C46.6129032,74.3064516 44.6935484,75.6774194 41.9516129,77.0483871 C40.3064516,77.5967742 38.3870968,78.4193548 36.7419355,78.9677419 C35.0967742,79.2419355 33.4516129,79.516129 31.8064516,79.516129 C30.1612903,79.516129 27.4193548,79.2419355 25.7741935,78.9677419 C24.1290323,78.6935484 22.483871,78.1451613 21.1129032,77.5967742 C19.7419355,77.0483871 18.0967742,76.2258065 16.7258065,75.1290323 C13.1612903,72.6612903 11.516129,70.4677419 9.87096774,68.2741935 C9.0483871,66.9032258 8.22580645,65.5322581 7.40322581,63.8870968 C6.85483871,62.2419355 6.30645161,60.8709677 6.03225806,59.2258065 C5.48387097,57.3064516 5.48387097,55.3870968 5.48387097,53.7419355 L5.48387097,19.4677419 L27.4193548,6.58064516 L27.4193548,42.5 L27.4193548,42.5 C27.4193548,56.2096774 37.5645161,67.4516129 50.4516129,70.1935484 C49.9032258,70.7419355 49.6290323,71.2903226 49.0806452,71.8387097 L49.0806452,71.8387097 Z M79.2419355,47.1612903 C78.9677419,48.5322581 78.4193548,49.9032258 77.8709677,51.2741935 C77.3225806,52.6451613 76.2258065,54.5645161 75.1290323,55.9354839 C73.483871,57.8548387 71.8387097,59.2258065 67.7258065,61.6935484 C64.1612903,63.6129032 61.1451613,64.1612903 59.2258065,64.7096774 C60.5967742,61.4193548 60.5967742,57.8548387 60.5967742,54.016129 L60.3225806,16.4516129 L79.516129,6.30645161 L79.516129,42.7741935 C79.516129,44.1451613 79.516129,45.7903226 79.2419355,47.1612903 L79.2419355,47.1612903 Z" id="mark"></path>
                </g>
            </g>
        </g>
    </g>
</svg>